# xmcd
#
# Track frame offsets: 
#        150
#        27727
#        47804
#        70507
#        96316
#        117421
#        143590
#        172762
#        190624
#        207699
#        223277
#        244298
#        261128
#        278453
#        296969
#        316523
#
# Disc length: 4589 seconds
#
# Revision: 5
# Processed by: cddbd v1.5.1PL0 Copyright (c) Steve Scherf et al.
# Submitted via: ExactAudioCopy v0.95a5
#
DISCID=f511eb10
DTITLE=Gerry Rafferty - Baker Street
DYEAR=1900
DGENRE=
TTITLE0=Baker Street
TTITLE1=Right Down The Line
TTITLE2=City To City
TTITLE3=Waiting For The Day
TTITLE4=Get It Right Next Time
TTITLE5=Take The Money And Run
TTITLE6=Days Gone Down (Still Got The Light In Your Eyes)
TTITLE7=Why Don´t You Talk To Me
TTITLE8=The Royal Mile
TTITLE9=Wastin´ Away
TTITLE10=Bring It All Home
TTITLE11=Don´t Close The Door
TTITLE12=Sleepwalking
TTITLE13=A Change Of Heart
TTITLE14=On The Way
TTITLE15=Night Owl
EXTD=
EXTT0=
EXTT1=
EXTT2=
EXTT3=
EXTT4=
EXTT5=
EXTT6=
EXTT7=
EXTT8=
EXTT9=
EXTT10=
EXTT11=
EXTT12=
EXTT13=
EXTT14=
EXTT15=
PLAYORDER=
